G04 EAGLE Gerber RS-274X export*
G75*
%MOMM*%
%FSLAX34Y34*%
%LPD*%
%INSilkscreen Bottom*%
%IPPOS*%
%AMOC8*
5,1,8,0,0,1.08239X$1,22.5*%
G01*
G04 Define Apertures*
%ADD10C,0.127000*%
G36*
X55757Y7962D02*
X55298Y7972D01*
X54853Y8003D01*
X54422Y8055D01*
X54005Y8127D01*
X53602Y8220D01*
X53213Y8334D01*
X52838Y8468D01*
X52477Y8623D01*
X52133Y8797D01*
X51809Y8991D01*
X51504Y9203D01*
X51218Y9433D01*
X50952Y9682D01*
X50705Y9950D01*
X50478Y10236D01*
X50270Y10541D01*
X50083Y10863D01*
X49918Y11199D01*
X49775Y11551D01*
X49654Y11917D01*
X49555Y12298D01*
X49478Y12695D01*
X49423Y13106D01*
X49390Y13532D01*
X48968Y13673D01*
X48577Y13823D01*
X48217Y13983D01*
X47889Y14153D01*
X47592Y14332D01*
X47326Y14521D01*
X47092Y14720D01*
X46889Y14929D01*
X46714Y15150D01*
X46562Y15385D01*
X46433Y15635D01*
X46328Y15900D01*
X46246Y16179D01*
X46187Y16474D01*
X46152Y16782D01*
X46140Y17105D01*
X46153Y17482D01*
X46189Y17867D01*
X46249Y18262D01*
X46333Y18665D01*
X47507Y18665D01*
X47421Y18150D01*
X47400Y17901D01*
X47393Y17657D01*
X47401Y17439D01*
X47424Y17230D01*
X47462Y17031D01*
X47516Y16842D01*
X47585Y16662D01*
X47669Y16492D01*
X47768Y16332D01*
X47883Y16181D01*
X48016Y16039D01*
X48167Y15904D01*
X48338Y15776D01*
X48527Y15655D01*
X48964Y15433D01*
X49477Y15240D01*
X49576Y15809D01*
X49717Y16345D01*
X49901Y16850D01*
X50128Y17322D01*
X50398Y17763D01*
X50711Y18171D01*
X51067Y18548D01*
X51466Y18892D01*
X51901Y19200D01*
X52364Y19467D01*
X52857Y19693D01*
X53379Y19878D01*
X53930Y20021D01*
X54510Y20124D01*
X55119Y20185D01*
X55757Y20206D01*
X56235Y20195D01*
X56697Y20160D01*
X57143Y20103D01*
X57573Y20023D01*
X57986Y19920D01*
X58383Y19795D01*
X58764Y19646D01*
X59129Y19475D01*
X59476Y19282D01*
X59801Y19068D01*
X60105Y18834D01*
X60387Y18580D01*
X60649Y18306D01*
X60889Y18011D01*
X61108Y17695D01*
X61306Y17359D01*
X61481Y17006D01*
X61633Y16636D01*
X61762Y16251D01*
X61868Y15851D01*
X61949Y15435D01*
X62008Y15003D01*
X62043Y14556D01*
X62055Y14093D01*
X62048Y13736D01*
X62029Y13390D01*
X61996Y13053D01*
X61950Y12727D01*
X61892Y12410D01*
X61820Y12103D01*
X61735Y11807D01*
X61638Y11520D01*
X61527Y11243D01*
X61403Y10976D01*
X61266Y10719D01*
X61116Y10471D01*
X60953Y10234D01*
X60777Y10007D01*
X60386Y9582D01*
X59949Y9202D01*
X59471Y8873D01*
X59217Y8727D01*
X58953Y8595D01*
X58679Y8474D01*
X58395Y8367D01*
X58100Y8272D01*
X57796Y8189D01*
X57481Y8120D01*
X57157Y8063D01*
X56822Y8019D01*
X56477Y7987D01*
X56122Y7968D01*
X55757Y7962D01*
G37*
%LPC*%
G36*
X55757Y9661D02*
X56326Y9679D01*
X56861Y9733D01*
X57365Y9823D01*
X57835Y9950D01*
X58273Y10112D01*
X58679Y10311D01*
X59052Y10546D01*
X59392Y10817D01*
X59696Y11121D01*
X59959Y11455D01*
X60182Y11819D01*
X60364Y12214D01*
X60506Y12638D01*
X60607Y13093D01*
X60668Y13578D01*
X60688Y14093D01*
X60668Y14603D01*
X60606Y15084D01*
X60504Y15535D01*
X60360Y15957D01*
X60175Y16349D01*
X59949Y16711D01*
X59683Y17044D01*
X59375Y17346D01*
X59031Y17616D01*
X58656Y17850D01*
X58250Y18048D01*
X57813Y18210D01*
X57346Y18336D01*
X56847Y18426D01*
X56318Y18480D01*
X55757Y18498D01*
X55172Y18480D01*
X54621Y18427D01*
X54104Y18337D01*
X53621Y18212D01*
X53173Y18052D01*
X52758Y17855D01*
X52377Y17623D01*
X52031Y17355D01*
X51722Y17054D01*
X51454Y16721D01*
X51227Y16358D01*
X51042Y15964D01*
X50898Y15538D01*
X50795Y15081D01*
X50733Y14594D01*
X50712Y14075D01*
X50734Y13570D01*
X50798Y13094D01*
X50904Y12646D01*
X51053Y12226D01*
X51244Y11834D01*
X51479Y11471D01*
X51755Y11136D01*
X52074Y10830D01*
X52430Y10556D01*
X52815Y10318D01*
X53231Y10117D01*
X53676Y9953D01*
X54151Y9825D01*
X54657Y9734D01*
X55192Y9679D01*
X55757Y9661D01*
G37*
%LPD*%
G36*
X61871Y22521D02*
X49530Y22521D01*
X49530Y24194D01*
X54654Y24194D01*
X54654Y28039D01*
X49530Y31244D01*
X49530Y33171D01*
X52583Y31159D01*
X54846Y29668D01*
X54919Y30011D01*
X55012Y30335D01*
X55128Y30640D01*
X55265Y30926D01*
X55357Y31082D01*
X55423Y31193D01*
X55604Y31441D01*
X55805Y31670D01*
X56029Y31879D01*
X56270Y32067D01*
X56525Y32230D01*
X56793Y32368D01*
X57075Y32480D01*
X57371Y32568D01*
X57681Y32631D01*
X58004Y32668D01*
X58341Y32681D01*
X58746Y32663D01*
X59127Y32610D01*
X59486Y32521D01*
X59822Y32397D01*
X60136Y32238D01*
X60426Y32043D01*
X60693Y31812D01*
X60938Y31547D01*
X61157Y31248D01*
X61346Y30920D01*
X61506Y30562D01*
X61638Y30175D01*
X61740Y29758D01*
X61812Y29311D01*
X61856Y28834D01*
X61871Y28328D01*
X61871Y22521D01*
G37*
%LPC*%
G36*
X60531Y24194D02*
X60531Y28161D01*
X60522Y28495D01*
X60495Y28809D01*
X60451Y29102D01*
X60390Y29376D01*
X60310Y29629D01*
X60213Y29862D01*
X60098Y30075D01*
X59966Y30268D01*
X59817Y30439D01*
X59651Y30588D01*
X59470Y30714D01*
X59273Y30816D01*
X59060Y30896D01*
X58830Y30953D01*
X58585Y30988D01*
X58324Y30999D01*
X58053Y30988D01*
X57798Y30954D01*
X57559Y30898D01*
X57335Y30819D01*
X57126Y30717D01*
X56933Y30593D01*
X56756Y30446D01*
X56594Y30277D01*
X56449Y30087D01*
X56324Y29878D01*
X56217Y29650D01*
X56131Y29404D01*
X56063Y29139D01*
X56015Y28855D01*
X55986Y28553D01*
X55976Y28232D01*
X55976Y24194D01*
X60531Y24194D01*
G37*
%LPD*%
G36*
X61871Y35458D02*
X49530Y35458D01*
X49530Y45180D01*
X50896Y45180D01*
X50896Y37131D01*
X55197Y37131D01*
X55197Y44296D01*
X56546Y44296D01*
X56546Y37131D01*
X60504Y37131D01*
X60504Y44821D01*
X61871Y44821D01*
X61871Y35458D01*
G37*
G36*
X52701Y73920D02*
X52299Y73987D01*
X51924Y74082D01*
X51573Y74205D01*
X51248Y74357D01*
X50948Y74537D01*
X50673Y74745D01*
X50424Y74982D01*
X50200Y75247D01*
X50002Y75538D01*
X49830Y75853D01*
X49685Y76191D01*
X49566Y76553D01*
X49474Y76939D01*
X49408Y77348D01*
X49368Y77781D01*
X49355Y78238D01*
X49370Y78727D01*
X49413Y79187D01*
X49487Y79618D01*
X49589Y80020D01*
X49721Y80394D01*
X49882Y80738D01*
X50072Y81053D01*
X50292Y81339D01*
X50538Y81593D01*
X50809Y81814D01*
X51103Y82000D01*
X51422Y82153D01*
X51765Y82272D01*
X52131Y82357D01*
X52522Y82408D01*
X52937Y82425D01*
X53226Y82413D01*
X53503Y82377D01*
X53767Y82316D01*
X54019Y82232D01*
X54258Y82124D01*
X54484Y81991D01*
X54698Y81835D01*
X54899Y81654D01*
X55084Y81452D01*
X55249Y81230D01*
X55395Y80990D01*
X55521Y80730D01*
X55627Y80451D01*
X55714Y80153D01*
X55780Y79836D01*
X55827Y79499D01*
X55862Y79499D01*
X55936Y79805D01*
X56024Y80092D01*
X56127Y80361D01*
X56245Y80611D01*
X56377Y80842D01*
X56525Y81054D01*
X56688Y81247D01*
X56865Y81422D01*
X57057Y81577D01*
X57263Y81711D01*
X57483Y81825D01*
X57716Y81918D01*
X57963Y81990D01*
X58224Y82042D01*
X58499Y82073D01*
X58788Y82083D01*
X59163Y82067D01*
X59516Y82019D01*
X59848Y81938D01*
X60160Y81826D01*
X60450Y81681D01*
X60718Y81504D01*
X60966Y81295D01*
X61192Y81054D01*
X61394Y80784D01*
X61569Y80488D01*
X61718Y80166D01*
X61839Y79818D01*
X61933Y79444D01*
X62001Y79045D01*
X62041Y78619D01*
X62055Y78168D01*
X62041Y77753D01*
X62002Y77357D01*
X61935Y76981D01*
X61842Y76623D01*
X61723Y76285D01*
X61577Y75967D01*
X61404Y75667D01*
X61205Y75387D01*
X60982Y75131D01*
X60739Y74903D01*
X60474Y74703D01*
X60189Y74532D01*
X59883Y74389D01*
X59556Y74275D01*
X59209Y74188D01*
X58840Y74130D01*
X58718Y75716D01*
X58954Y75750D01*
X59176Y75802D01*
X59385Y75870D01*
X59580Y75955D01*
X59762Y76057D01*
X59930Y76176D01*
X60084Y76312D01*
X60224Y76465D01*
X60349Y76632D01*
X60458Y76811D01*
X60550Y77003D01*
X60625Y77208D01*
X60683Y77425D01*
X60725Y77654D01*
X60750Y77896D01*
X60758Y78151D01*
X60749Y78429D01*
X60723Y78689D01*
X60678Y78932D01*
X60615Y79157D01*
X60534Y79364D01*
X60436Y79554D01*
X60319Y79726D01*
X60185Y79880D01*
X60035Y80017D01*
X59872Y80135D01*
X59696Y80235D01*
X59507Y80317D01*
X59305Y80381D01*
X59090Y80426D01*
X58862Y80454D01*
X58621Y80463D01*
X58379Y80452D01*
X58149Y80418D01*
X57933Y80362D01*
X57731Y80284D01*
X57543Y80184D01*
X57368Y80061D01*
X57206Y79916D01*
X57058Y79749D01*
X56926Y79561D01*
X56811Y79356D01*
X56714Y79132D01*
X56634Y78890D01*
X56572Y78629D01*
X56528Y78351D01*
X56502Y78054D01*
X56493Y77739D01*
X56493Y76881D01*
X55127Y76881D01*
X55127Y77774D01*
X55118Y78129D01*
X55091Y78462D01*
X55047Y78774D01*
X54985Y79065D01*
X54906Y79334D01*
X54809Y79581D01*
X54694Y79807D01*
X54562Y80012D01*
X54414Y80193D01*
X54252Y80351D01*
X54076Y80484D01*
X53886Y80593D01*
X53683Y80678D01*
X53466Y80738D01*
X53235Y80775D01*
X52990Y80787D01*
X52709Y80776D01*
X52447Y80744D01*
X52203Y80691D01*
X51976Y80617D01*
X51767Y80522D01*
X51576Y80405D01*
X51402Y80267D01*
X51247Y80108D01*
X51109Y79930D01*
X50990Y79737D01*
X50889Y79527D01*
X50807Y79301D01*
X50742Y79059D01*
X50697Y78802D01*
X50669Y78528D01*
X50660Y78238D01*
X50668Y77949D01*
X50694Y77677D01*
X50737Y77420D01*
X50797Y77180D01*
X50874Y76956D01*
X50968Y76747D01*
X51079Y76555D01*
X51207Y76379D01*
X51353Y76219D01*
X51515Y76075D01*
X51695Y75947D01*
X51892Y75836D01*
X52105Y75740D01*
X52336Y75660D01*
X52584Y75597D01*
X52849Y75549D01*
X52701Y73920D01*
G37*
G36*
X50870Y47322D02*
X49530Y47322D01*
X49530Y55056D01*
X50870Y55056D01*
X50870Y52052D01*
X61871Y52052D01*
X61871Y50598D01*
X59865Y47681D01*
X58376Y47681D01*
X60364Y50466D01*
X50870Y50466D01*
X50870Y47322D01*
G37*
G36*
X50870Y55978D02*
X49530Y55978D01*
X49530Y63712D01*
X50870Y63712D01*
X50870Y60708D01*
X61871Y60708D01*
X61871Y59254D01*
X59865Y56337D01*
X58376Y56337D01*
X60364Y59123D01*
X50870Y59123D01*
X50870Y55978D01*
G37*
G36*
X50870Y64635D02*
X49530Y64635D01*
X49530Y72368D01*
X50870Y72368D01*
X50870Y69364D01*
X61871Y69364D01*
X61871Y67910D01*
X59865Y64994D01*
X58376Y64994D01*
X60364Y67779D01*
X50870Y67779D01*
X50870Y64635D01*
G37*
G36*
X55757Y1339813D02*
X55298Y1339823D01*
X54853Y1339854D01*
X54422Y1339906D01*
X54005Y1339978D01*
X53602Y1340071D01*
X53213Y1340185D01*
X52838Y1340319D01*
X52477Y1340474D01*
X52133Y1340648D01*
X51809Y1340842D01*
X51504Y1341054D01*
X51218Y1341284D01*
X50952Y1341533D01*
X50705Y1341801D01*
X50478Y1342087D01*
X50270Y1342392D01*
X50083Y1342714D01*
X49918Y1343050D01*
X49775Y1343402D01*
X49654Y1343768D01*
X49555Y1344149D01*
X49478Y1344546D01*
X49423Y1344957D01*
X49390Y1345383D01*
X48968Y1345524D01*
X48577Y1345674D01*
X48217Y1345834D01*
X47889Y1346004D01*
X47592Y1346183D01*
X47326Y1346372D01*
X47092Y1346571D01*
X46889Y1346780D01*
X46714Y1347001D01*
X46562Y1347236D01*
X46433Y1347486D01*
X46328Y1347751D01*
X46246Y1348030D01*
X46187Y1348325D01*
X46152Y1348633D01*
X46140Y1348956D01*
X46153Y1349333D01*
X46189Y1349718D01*
X46249Y1350113D01*
X46333Y1350516D01*
X47507Y1350516D01*
X47421Y1350001D01*
X47400Y1349752D01*
X47393Y1349508D01*
X47401Y1349290D01*
X47424Y1349081D01*
X47462Y1348882D01*
X47516Y1348693D01*
X47585Y1348513D01*
X47669Y1348343D01*
X47768Y1348183D01*
X47883Y1348032D01*
X48016Y1347890D01*
X48167Y1347755D01*
X48338Y1347627D01*
X48527Y1347506D01*
X48964Y1347284D01*
X49477Y1347091D01*
X49576Y1347660D01*
X49717Y1348196D01*
X49901Y1348701D01*
X50128Y1349173D01*
X50398Y1349614D01*
X50711Y1350022D01*
X51067Y1350399D01*
X51466Y1350743D01*
X51901Y1351051D01*
X52364Y1351318D01*
X52857Y1351544D01*
X53379Y1351729D01*
X53930Y1351872D01*
X54510Y1351975D01*
X55119Y1352036D01*
X55757Y1352057D01*
X56235Y1352046D01*
X56697Y1352011D01*
X57143Y1351954D01*
X57573Y1351874D01*
X57986Y1351771D01*
X58383Y1351646D01*
X58764Y1351497D01*
X59129Y1351326D01*
X59476Y1351133D01*
X59801Y1350919D01*
X60105Y1350685D01*
X60387Y1350431D01*
X60649Y1350157D01*
X60889Y1349862D01*
X61108Y1349546D01*
X61306Y1349210D01*
X61481Y1348857D01*
X61633Y1348487D01*
X61762Y1348102D01*
X61868Y1347702D01*
X61949Y1347286D01*
X62008Y1346854D01*
X62043Y1346407D01*
X62055Y1345944D01*
X62048Y1345587D01*
X62029Y1345241D01*
X61996Y1344904D01*
X61950Y1344578D01*
X61892Y1344261D01*
X61820Y1343954D01*
X61735Y1343658D01*
X61638Y1343371D01*
X61527Y1343094D01*
X61403Y1342827D01*
X61266Y1342570D01*
X61116Y1342322D01*
X60953Y1342085D01*
X60777Y1341858D01*
X60386Y1341433D01*
X59949Y1341053D01*
X59471Y1340724D01*
X59217Y1340578D01*
X58953Y1340446D01*
X58679Y1340325D01*
X58395Y1340218D01*
X58100Y1340123D01*
X57796Y1340040D01*
X57481Y1339971D01*
X57157Y1339914D01*
X56822Y1339870D01*
X56477Y1339838D01*
X56122Y1339819D01*
X55757Y1339813D01*
G37*
%LPC*%
G36*
X55757Y1341512D02*
X56326Y1341530D01*
X56861Y1341584D01*
X57365Y1341674D01*
X57835Y1341801D01*
X58273Y1341963D01*
X58679Y1342162D01*
X59052Y1342397D01*
X59392Y1342668D01*
X59696Y1342972D01*
X59959Y1343306D01*
X60182Y1343670D01*
X60364Y1344065D01*
X60506Y1344489D01*
X60607Y1344944D01*
X60668Y1345429D01*
X60688Y1345944D01*
X60668Y1346454D01*
X60606Y1346935D01*
X60504Y1347386D01*
X60360Y1347808D01*
X60175Y1348200D01*
X59949Y1348562D01*
X59683Y1348895D01*
X59375Y1349197D01*
X59031Y1349467D01*
X58656Y1349701D01*
X58250Y1349899D01*
X57813Y1350061D01*
X57346Y1350187D01*
X56847Y1350277D01*
X56318Y1350331D01*
X55757Y1350349D01*
X55172Y1350331D01*
X54621Y1350278D01*
X54104Y1350188D01*
X53621Y1350063D01*
X53173Y1349903D01*
X52758Y1349706D01*
X52377Y1349474D01*
X52031Y1349206D01*
X51722Y1348905D01*
X51454Y1348572D01*
X51227Y1348209D01*
X51042Y1347815D01*
X50898Y1347389D01*
X50795Y1346932D01*
X50733Y1346445D01*
X50712Y1345926D01*
X50734Y1345421D01*
X50798Y1344945D01*
X50904Y1344497D01*
X51053Y1344077D01*
X51244Y1343685D01*
X51479Y1343322D01*
X51755Y1342987D01*
X52074Y1342681D01*
X52430Y1342407D01*
X52815Y1342169D01*
X53231Y1341968D01*
X53676Y1341804D01*
X54151Y1341676D01*
X54657Y1341585D01*
X55192Y1341530D01*
X55757Y1341512D01*
G37*
%LPD*%
G36*
X61871Y1354372D02*
X49530Y1354372D01*
X49530Y1356045D01*
X54654Y1356045D01*
X54654Y1359890D01*
X49530Y1363095D01*
X49530Y1365022D01*
X52583Y1363010D01*
X54846Y1361519D01*
X54919Y1361862D01*
X55012Y1362186D01*
X55128Y1362491D01*
X55265Y1362777D01*
X55357Y1362933D01*
X55423Y1363044D01*
X55604Y1363292D01*
X55805Y1363521D01*
X56029Y1363730D01*
X56270Y1363918D01*
X56525Y1364081D01*
X56793Y1364219D01*
X57075Y1364331D01*
X57371Y1364419D01*
X57681Y1364482D01*
X58004Y1364519D01*
X58341Y1364532D01*
X58746Y1364514D01*
X59127Y1364461D01*
X59486Y1364372D01*
X59822Y1364248D01*
X60136Y1364089D01*
X60426Y1363894D01*
X60693Y1363663D01*
X60938Y1363398D01*
X61157Y1363099D01*
X61346Y1362771D01*
X61506Y1362413D01*
X61638Y1362026D01*
X61740Y1361609D01*
X61812Y1361162D01*
X61856Y1360685D01*
X61871Y1360179D01*
X61871Y1354372D01*
G37*
%LPC*%
G36*
X60531Y1356045D02*
X60531Y1360012D01*
X60522Y1360346D01*
X60495Y1360660D01*
X60451Y1360953D01*
X60390Y1361227D01*
X60310Y1361480D01*
X60213Y1361713D01*
X60098Y1361926D01*
X59966Y1362119D01*
X59817Y1362290D01*
X59651Y1362439D01*
X59470Y1362565D01*
X59273Y1362667D01*
X59060Y1362747D01*
X58830Y1362804D01*
X58585Y1362839D01*
X58324Y1362850D01*
X58053Y1362839D01*
X57798Y1362805D01*
X57559Y1362749D01*
X57335Y1362670D01*
X57126Y1362568D01*
X56933Y1362444D01*
X56756Y1362297D01*
X56594Y1362128D01*
X56449Y1361938D01*
X56324Y1361729D01*
X56217Y1361501D01*
X56131Y1361255D01*
X56063Y1360990D01*
X56015Y1360706D01*
X55986Y1360404D01*
X55976Y1360083D01*
X55976Y1356045D01*
X60531Y1356045D01*
G37*
%LPD*%
G36*
X61871Y1367309D02*
X49530Y1367309D01*
X49530Y1377031D01*
X50896Y1377031D01*
X50896Y1368982D01*
X55197Y1368982D01*
X55197Y1376147D01*
X56546Y1376147D01*
X56546Y1368982D01*
X60504Y1368982D01*
X60504Y1376672D01*
X61871Y1376672D01*
X61871Y1367309D01*
G37*
G36*
X52701Y1405771D02*
X52299Y1405838D01*
X51924Y1405933D01*
X51573Y1406056D01*
X51248Y1406208D01*
X50948Y1406388D01*
X50673Y1406596D01*
X50424Y1406833D01*
X50200Y1407098D01*
X50002Y1407389D01*
X49830Y1407704D01*
X49685Y1408042D01*
X49566Y1408404D01*
X49474Y1408790D01*
X49408Y1409199D01*
X49368Y1409632D01*
X49355Y1410089D01*
X49370Y1410578D01*
X49413Y1411038D01*
X49487Y1411469D01*
X49589Y1411871D01*
X49721Y1412245D01*
X49882Y1412589D01*
X50072Y1412904D01*
X50292Y1413190D01*
X50538Y1413444D01*
X50809Y1413665D01*
X51103Y1413851D01*
X51422Y1414004D01*
X51765Y1414123D01*
X52131Y1414208D01*
X52522Y1414259D01*
X52937Y1414276D01*
X53226Y1414264D01*
X53503Y1414228D01*
X53767Y1414167D01*
X54019Y1414083D01*
X54258Y1413975D01*
X54484Y1413842D01*
X54698Y1413686D01*
X54899Y1413505D01*
X55084Y1413303D01*
X55249Y1413081D01*
X55395Y1412841D01*
X55521Y1412581D01*
X55627Y1412302D01*
X55714Y1412004D01*
X55780Y1411687D01*
X55827Y1411350D01*
X55862Y1411350D01*
X55936Y1411656D01*
X56024Y1411943D01*
X56127Y1412212D01*
X56245Y1412462D01*
X56377Y1412693D01*
X56525Y1412905D01*
X56688Y1413098D01*
X56865Y1413273D01*
X57057Y1413428D01*
X57263Y1413562D01*
X57483Y1413676D01*
X57716Y1413769D01*
X57963Y1413841D01*
X58224Y1413893D01*
X58499Y1413924D01*
X58788Y1413934D01*
X59163Y1413918D01*
X59516Y1413870D01*
X59848Y1413789D01*
X60160Y1413677D01*
X60450Y1413532D01*
X60718Y1413355D01*
X60966Y1413146D01*
X61192Y1412905D01*
X61394Y1412635D01*
X61569Y1412339D01*
X61718Y1412017D01*
X61839Y1411669D01*
X61933Y1411295D01*
X62001Y1410896D01*
X62041Y1410470D01*
X62055Y1410019D01*
X62041Y1409604D01*
X62002Y1409208D01*
X61935Y1408832D01*
X61842Y1408474D01*
X61723Y1408136D01*
X61577Y1407818D01*
X61404Y1407518D01*
X61205Y1407238D01*
X60982Y1406982D01*
X60739Y1406754D01*
X60474Y1406554D01*
X60189Y1406383D01*
X59883Y1406240D01*
X59556Y1406126D01*
X59209Y1406039D01*
X58840Y1405981D01*
X58718Y1407567D01*
X58954Y1407601D01*
X59176Y1407653D01*
X59385Y1407721D01*
X59580Y1407806D01*
X59762Y1407908D01*
X59930Y1408027D01*
X60084Y1408163D01*
X60224Y1408316D01*
X60349Y1408483D01*
X60458Y1408662D01*
X60550Y1408854D01*
X60625Y1409059D01*
X60683Y1409276D01*
X60725Y1409505D01*
X60750Y1409747D01*
X60758Y1410002D01*
X60749Y1410280D01*
X60723Y1410540D01*
X60678Y1410783D01*
X60615Y1411008D01*
X60534Y1411215D01*
X60436Y1411405D01*
X60319Y1411577D01*
X60185Y1411731D01*
X60035Y1411868D01*
X59872Y1411986D01*
X59696Y1412086D01*
X59507Y1412168D01*
X59305Y1412232D01*
X59090Y1412277D01*
X58862Y1412305D01*
X58621Y1412314D01*
X58379Y1412303D01*
X58149Y1412269D01*
X57933Y1412213D01*
X57731Y1412135D01*
X57543Y1412035D01*
X57368Y1411912D01*
X57206Y1411767D01*
X57058Y1411600D01*
X56926Y1411412D01*
X56811Y1411207D01*
X56714Y1410983D01*
X56634Y1410741D01*
X56572Y1410480D01*
X56528Y1410202D01*
X56502Y1409905D01*
X56493Y1409590D01*
X56493Y1408732D01*
X55127Y1408732D01*
X55127Y1409625D01*
X55118Y1409980D01*
X55091Y1410313D01*
X55047Y1410625D01*
X54985Y1410916D01*
X54906Y1411185D01*
X54809Y1411432D01*
X54694Y1411658D01*
X54562Y1411863D01*
X54414Y1412044D01*
X54252Y1412202D01*
X54076Y1412335D01*
X53886Y1412444D01*
X53683Y1412529D01*
X53466Y1412589D01*
X53235Y1412626D01*
X52990Y1412638D01*
X52709Y1412627D01*
X52447Y1412595D01*
X52203Y1412542D01*
X51976Y1412468D01*
X51767Y1412373D01*
X51576Y1412256D01*
X51402Y1412118D01*
X51247Y1411959D01*
X51109Y1411781D01*
X50990Y1411588D01*
X50889Y1411378D01*
X50807Y1411152D01*
X50742Y1410910D01*
X50697Y1410653D01*
X50669Y1410379D01*
X50660Y1410089D01*
X50668Y1409800D01*
X50694Y1409528D01*
X50737Y1409271D01*
X50797Y1409031D01*
X50874Y1408807D01*
X50968Y1408598D01*
X51079Y1408406D01*
X51207Y1408230D01*
X51353Y1408070D01*
X51515Y1407926D01*
X51695Y1407798D01*
X51892Y1407687D01*
X52105Y1407591D01*
X52336Y1407511D01*
X52584Y1407448D01*
X52849Y1407400D01*
X52701Y1405771D01*
G37*
G36*
X50870Y1379173D02*
X49530Y1379173D01*
X49530Y1386907D01*
X50870Y1386907D01*
X50870Y1383903D01*
X61871Y1383903D01*
X61871Y1382449D01*
X59865Y1379532D01*
X58376Y1379532D01*
X60364Y1382317D01*
X50870Y1382317D01*
X50870Y1379173D01*
G37*
G36*
X50870Y1387829D02*
X49530Y1387829D01*
X49530Y1395563D01*
X50870Y1395563D01*
X50870Y1392559D01*
X61871Y1392559D01*
X61871Y1391105D01*
X59865Y1388188D01*
X58376Y1388188D01*
X60364Y1390974D01*
X50870Y1390974D01*
X50870Y1387829D01*
G37*
G36*
X50870Y1396486D02*
X49530Y1396486D01*
X49530Y1404219D01*
X50870Y1404219D01*
X50870Y1401215D01*
X61871Y1401215D01*
X61871Y1399761D01*
X59865Y1396845D01*
X58376Y1396845D01*
X60364Y1399630D01*
X50870Y1399630D01*
X50870Y1396486D01*
G37*
G36*
X1569597Y1339520D02*
X1569138Y1339530D01*
X1568693Y1339561D01*
X1568262Y1339613D01*
X1567845Y1339685D01*
X1567442Y1339778D01*
X1567053Y1339892D01*
X1566678Y1340026D01*
X1566317Y1340181D01*
X1565973Y1340356D01*
X1565649Y1340549D01*
X1565344Y1340761D01*
X1565058Y1340991D01*
X1564792Y1341240D01*
X1564545Y1341508D01*
X1564318Y1341794D01*
X1564110Y1342099D01*
X1563923Y1342421D01*
X1563758Y1342757D01*
X1563615Y1343109D01*
X1563494Y1343475D01*
X1563395Y1343857D01*
X1563318Y1344253D01*
X1563263Y1344664D01*
X1563230Y1345090D01*
X1562808Y1345231D01*
X1562417Y1345381D01*
X1562057Y1345541D01*
X1561729Y1345711D01*
X1561432Y1345890D01*
X1561166Y1346080D01*
X1560932Y1346279D01*
X1560729Y1346487D01*
X1560554Y1346708D01*
X1560402Y1346943D01*
X1560273Y1347194D01*
X1560168Y1347458D01*
X1560086Y1347738D01*
X1560027Y1348032D01*
X1559992Y1348340D01*
X1559980Y1348664D01*
X1559993Y1349040D01*
X1560029Y1349426D01*
X1560089Y1349820D01*
X1560173Y1350223D01*
X1561347Y1350223D01*
X1561261Y1349708D01*
X1561240Y1349459D01*
X1561233Y1349215D01*
X1561241Y1348997D01*
X1561264Y1348788D01*
X1561302Y1348589D01*
X1561356Y1348400D01*
X1561425Y1348220D01*
X1561509Y1348050D01*
X1561608Y1347890D01*
X1561723Y1347740D01*
X1561856Y1347598D01*
X1562007Y1347462D01*
X1562178Y1347334D01*
X1562367Y1347213D01*
X1562804Y1346992D01*
X1563317Y1346798D01*
X1563416Y1347367D01*
X1563557Y1347903D01*
X1563741Y1348408D01*
X1563968Y1348880D01*
X1564238Y1349321D01*
X1564551Y1349729D01*
X1564907Y1350106D01*
X1565306Y1350450D01*
X1565741Y1350758D01*
X1566204Y1351025D01*
X1566697Y1351251D01*
X1567219Y1351436D01*
X1567770Y1351579D01*
X1568350Y1351682D01*
X1568959Y1351744D01*
X1569597Y1351764D01*
X1570075Y1351753D01*
X1570537Y1351718D01*
X1570983Y1351661D01*
X1571413Y1351581D01*
X1571826Y1351479D01*
X1572223Y1351353D01*
X1572604Y1351204D01*
X1572969Y1351033D01*
X1573316Y1350840D01*
X1573641Y1350626D01*
X1573945Y1350393D01*
X1574227Y1350138D01*
X1574489Y1349864D01*
X1574729Y1349569D01*
X1574948Y1349253D01*
X1575146Y1348918D01*
X1575321Y1348564D01*
X1575473Y1348195D01*
X1575602Y1347810D01*
X1575708Y1347409D01*
X1575789Y1346993D01*
X1575848Y1346561D01*
X1575883Y1346114D01*
X1575895Y1345651D01*
X1575888Y1345294D01*
X1575869Y1344948D01*
X1575836Y1344611D01*
X1575790Y1344285D01*
X1575732Y1343968D01*
X1575660Y1343662D01*
X1575575Y1343365D01*
X1575478Y1343078D01*
X1575367Y1342801D01*
X1575243Y1342534D01*
X1575106Y1342277D01*
X1574956Y1342030D01*
X1574793Y1341792D01*
X1574617Y1341565D01*
X1574226Y1341140D01*
X1573789Y1340760D01*
X1573311Y1340431D01*
X1573057Y1340286D01*
X1572793Y1340153D01*
X1572519Y1340032D01*
X1572235Y1339925D01*
X1571940Y1339830D01*
X1571636Y1339748D01*
X1571321Y1339678D01*
X1570997Y1339621D01*
X1570662Y1339577D01*
X1570317Y1339545D01*
X1569962Y1339526D01*
X1569597Y1339520D01*
G37*
%LPC*%
G36*
X1569597Y1341219D02*
X1570166Y1341237D01*
X1570701Y1341291D01*
X1571205Y1341381D01*
X1571675Y1341508D01*
X1572113Y1341671D01*
X1572519Y1341869D01*
X1572892Y1342104D01*
X1573232Y1342375D01*
X1573536Y1342679D01*
X1573799Y1343013D01*
X1574022Y1343378D01*
X1574204Y1343772D01*
X1574346Y1344197D01*
X1574447Y1344651D01*
X1574508Y1345136D01*
X1574528Y1345651D01*
X1574508Y1346161D01*
X1574446Y1346642D01*
X1574344Y1347094D01*
X1574200Y1347515D01*
X1574015Y1347907D01*
X1573789Y1348269D01*
X1573523Y1348602D01*
X1573215Y1348905D01*
X1572871Y1349174D01*
X1572496Y1349408D01*
X1572090Y1349606D01*
X1571653Y1349768D01*
X1571186Y1349894D01*
X1570687Y1349984D01*
X1570158Y1350038D01*
X1569597Y1350056D01*
X1569012Y1350038D01*
X1568461Y1349985D01*
X1567944Y1349896D01*
X1567461Y1349771D01*
X1567013Y1349610D01*
X1566598Y1349413D01*
X1566217Y1349181D01*
X1565871Y1348913D01*
X1565562Y1348612D01*
X1565294Y1348280D01*
X1565067Y1347916D01*
X1564882Y1347522D01*
X1564738Y1347096D01*
X1564635Y1346640D01*
X1564573Y1346152D01*
X1564552Y1345633D01*
X1564574Y1345128D01*
X1564638Y1344652D01*
X1564744Y1344204D01*
X1564893Y1343784D01*
X1565084Y1343393D01*
X1565319Y1343029D01*
X1565595Y1342695D01*
X1565914Y1342388D01*
X1566270Y1342114D01*
X1566655Y1341877D01*
X1567071Y1341676D01*
X1567516Y1341511D01*
X1567991Y1341383D01*
X1568497Y1341292D01*
X1569032Y1341237D01*
X1569597Y1341219D01*
G37*
%LPD*%
G36*
X1575711Y1354079D02*
X1563370Y1354079D01*
X1563370Y1355752D01*
X1568494Y1355752D01*
X1568494Y1359597D01*
X1563370Y1362803D01*
X1563370Y1364729D01*
X1566423Y1362717D01*
X1568686Y1361226D01*
X1568759Y1361569D01*
X1568852Y1361893D01*
X1568968Y1362198D01*
X1569105Y1362484D01*
X1569197Y1362640D01*
X1569263Y1362751D01*
X1569444Y1362999D01*
X1569645Y1363228D01*
X1569869Y1363438D01*
X1570110Y1363625D01*
X1570365Y1363788D01*
X1570633Y1363926D01*
X1570915Y1364039D01*
X1571211Y1364126D01*
X1571521Y1364189D01*
X1571844Y1364226D01*
X1572181Y1364239D01*
X1572586Y1364221D01*
X1572967Y1364168D01*
X1573326Y1364080D01*
X1573662Y1363955D01*
X1573976Y1363796D01*
X1574266Y1363601D01*
X1574533Y1363371D01*
X1574778Y1363105D01*
X1574997Y1362806D01*
X1575186Y1362478D01*
X1575346Y1362120D01*
X1575478Y1361733D01*
X1575580Y1361316D01*
X1575652Y1360869D01*
X1575696Y1360392D01*
X1575711Y1359886D01*
X1575711Y1354079D01*
G37*
%LPC*%
G36*
X1574371Y1355752D02*
X1574371Y1359720D01*
X1574362Y1360053D01*
X1574335Y1360367D01*
X1574291Y1360660D01*
X1574230Y1360934D01*
X1574150Y1361187D01*
X1574053Y1361420D01*
X1573938Y1361633D01*
X1573806Y1361826D01*
X1573657Y1361997D01*
X1573491Y1362146D01*
X1573310Y1362272D01*
X1573113Y1362375D01*
X1572900Y1362455D01*
X1572670Y1362512D01*
X1572425Y1362546D01*
X1572164Y1362557D01*
X1571893Y1362546D01*
X1571638Y1362512D01*
X1571399Y1362456D01*
X1571175Y1362377D01*
X1570966Y1362275D01*
X1570773Y1362151D01*
X1570596Y1362004D01*
X1570434Y1361835D01*
X1570289Y1361645D01*
X1570164Y1361436D01*
X1570057Y1361208D01*
X1569971Y1360962D01*
X1569903Y1360697D01*
X1569855Y1360413D01*
X1569826Y1360111D01*
X1569816Y1359790D01*
X1569816Y1355752D01*
X1574371Y1355752D01*
G37*
%LPD*%
G36*
X1575711Y1367017D02*
X1563370Y1367017D01*
X1563370Y1376739D01*
X1564736Y1376739D01*
X1564736Y1368689D01*
X1569037Y1368689D01*
X1569037Y1375854D01*
X1570386Y1375854D01*
X1570386Y1368689D01*
X1574344Y1368689D01*
X1574344Y1376379D01*
X1575711Y1376379D01*
X1575711Y1367017D01*
G37*
G36*
X1566541Y1405478D02*
X1566139Y1405545D01*
X1565764Y1405640D01*
X1565413Y1405763D01*
X1565088Y1405915D01*
X1564788Y1406095D01*
X1564513Y1406304D01*
X1564264Y1406540D01*
X1564040Y1406805D01*
X1563842Y1407096D01*
X1563670Y1407411D01*
X1563525Y1407749D01*
X1563406Y1408111D01*
X1563314Y1408497D01*
X1563248Y1408906D01*
X1563208Y1409340D01*
X1563195Y1409796D01*
X1563210Y1410285D01*
X1563253Y1410745D01*
X1563327Y1411177D01*
X1563429Y1411579D01*
X1563561Y1411952D01*
X1563722Y1412296D01*
X1563912Y1412611D01*
X1564132Y1412897D01*
X1564378Y1413151D01*
X1564649Y1413372D01*
X1564943Y1413559D01*
X1565262Y1413711D01*
X1565605Y1413830D01*
X1565971Y1413915D01*
X1566362Y1413966D01*
X1566777Y1413983D01*
X1567066Y1413971D01*
X1567343Y1413935D01*
X1567607Y1413874D01*
X1567859Y1413790D01*
X1568098Y1413682D01*
X1568324Y1413549D01*
X1568538Y1413393D01*
X1568739Y1413212D01*
X1568924Y1413010D01*
X1569089Y1412788D01*
X1569235Y1412548D01*
X1569361Y1412288D01*
X1569467Y1412009D01*
X1569554Y1411711D01*
X1569620Y1411394D01*
X1569667Y1411058D01*
X1569702Y1411058D01*
X1569776Y1411363D01*
X1569864Y1411651D01*
X1569967Y1411919D01*
X1570085Y1412169D01*
X1570217Y1412400D01*
X1570365Y1412612D01*
X1570528Y1412805D01*
X1570705Y1412980D01*
X1570897Y1413135D01*
X1571103Y1413269D01*
X1571323Y1413383D01*
X1571556Y1413476D01*
X1571803Y1413548D01*
X1572064Y1413600D01*
X1572339Y1413631D01*
X1572628Y1413641D01*
X1573003Y1413625D01*
X1573356Y1413577D01*
X1573688Y1413497D01*
X1574000Y1413384D01*
X1574290Y1413239D01*
X1574558Y1413062D01*
X1574806Y1412853D01*
X1575032Y1412612D01*
X1575234Y1412342D01*
X1575409Y1412046D01*
X1575558Y1411724D01*
X1575679Y1411376D01*
X1575773Y1411002D01*
X1575841Y1410603D01*
X1575881Y1410177D01*
X1575895Y1409726D01*
X1575881Y1409311D01*
X1575842Y1408915D01*
X1575775Y1408539D01*
X1575682Y1408181D01*
X1575563Y1407843D01*
X1575417Y1407525D01*
X1575244Y1407225D01*
X1575045Y1406945D01*
X1574822Y1406689D01*
X1574579Y1406461D01*
X1574314Y1406262D01*
X1574029Y1406090D01*
X1573723Y1405947D01*
X1573396Y1405833D01*
X1573049Y1405746D01*
X1572680Y1405689D01*
X1572558Y1407274D01*
X1572794Y1407309D01*
X1573016Y1407360D01*
X1573225Y1407428D01*
X1573420Y1407514D01*
X1573602Y1407616D01*
X1573770Y1407734D01*
X1573924Y1407870D01*
X1574064Y1408023D01*
X1574189Y1408190D01*
X1574298Y1408369D01*
X1574390Y1408562D01*
X1574465Y1408766D01*
X1574523Y1408983D01*
X1574565Y1409212D01*
X1574590Y1409454D01*
X1574598Y1409709D01*
X1574589Y1409987D01*
X1574563Y1410247D01*
X1574518Y1410490D01*
X1574455Y1410715D01*
X1574374Y1410922D01*
X1574276Y1411112D01*
X1574159Y1411284D01*
X1574025Y1411439D01*
X1573875Y1411575D01*
X1573712Y1411693D01*
X1573536Y1411793D01*
X1573347Y1411875D01*
X1573145Y1411939D01*
X1572930Y1411985D01*
X1572702Y1412012D01*
X1572461Y1412021D01*
X1572219Y1412010D01*
X1571989Y1411976D01*
X1571773Y1411921D01*
X1571571Y1411843D01*
X1571383Y1411742D01*
X1571208Y1411619D01*
X1571046Y1411474D01*
X1570898Y1411307D01*
X1570766Y1411120D01*
X1570651Y1410914D01*
X1570554Y1410690D01*
X1570474Y1410448D01*
X1570412Y1410187D01*
X1570368Y1409909D01*
X1570342Y1409612D01*
X1570333Y1409297D01*
X1570333Y1408439D01*
X1568967Y1408439D01*
X1568967Y1409332D01*
X1568958Y1409687D01*
X1568931Y1410020D01*
X1568887Y1410332D01*
X1568825Y1410623D01*
X1568746Y1410892D01*
X1568649Y1411139D01*
X1568534Y1411365D01*
X1568402Y1411570D01*
X1568254Y1411752D01*
X1568092Y1411909D01*
X1567916Y1412042D01*
X1567726Y1412151D01*
X1567523Y1412236D01*
X1567306Y1412297D01*
X1567075Y1412333D01*
X1566830Y1412345D01*
X1566549Y1412334D01*
X1566287Y1412303D01*
X1566043Y1412250D01*
X1565816Y1412175D01*
X1565607Y1412080D01*
X1565416Y1411963D01*
X1565242Y1411825D01*
X1565087Y1411666D01*
X1564949Y1411489D01*
X1564830Y1411295D01*
X1564729Y1411085D01*
X1564647Y1410859D01*
X1564582Y1410618D01*
X1564537Y1410360D01*
X1564509Y1410086D01*
X1564500Y1409796D01*
X1564508Y1409508D01*
X1564534Y1409235D01*
X1564577Y1408979D01*
X1564637Y1408738D01*
X1564714Y1408514D01*
X1564808Y1408306D01*
X1564919Y1408113D01*
X1565047Y1407937D01*
X1565193Y1407777D01*
X1565355Y1407633D01*
X1565535Y1407505D01*
X1565732Y1407394D01*
X1565945Y1407298D01*
X1566176Y1407218D01*
X1566424Y1407155D01*
X1566689Y1407107D01*
X1566541Y1405478D01*
G37*
G36*
X1564710Y1378880D02*
X1563370Y1378880D01*
X1563370Y1386614D01*
X1564710Y1386614D01*
X1564710Y1383610D01*
X1575711Y1383610D01*
X1575711Y1382156D01*
X1573705Y1379239D01*
X1572216Y1379239D01*
X1574204Y1382025D01*
X1564710Y1382025D01*
X1564710Y1378880D01*
G37*
G36*
X1564710Y1387536D02*
X1563370Y1387536D01*
X1563370Y1395270D01*
X1564710Y1395270D01*
X1564710Y1392266D01*
X1575711Y1392266D01*
X1575711Y1390812D01*
X1573705Y1387896D01*
X1572216Y1387896D01*
X1574204Y1390681D01*
X1564710Y1390681D01*
X1564710Y1387536D01*
G37*
G36*
X1564710Y1396193D02*
X1563370Y1396193D01*
X1563370Y1403927D01*
X1564710Y1403927D01*
X1564710Y1400922D01*
X1575711Y1400922D01*
X1575711Y1399468D01*
X1573705Y1396552D01*
X1572216Y1396552D01*
X1574204Y1399337D01*
X1564710Y1399337D01*
X1564710Y1396193D01*
G37*
G36*
X1569597Y8052D02*
X1569138Y8062D01*
X1568693Y8093D01*
X1568262Y8145D01*
X1567845Y8217D01*
X1567442Y8310D01*
X1567053Y8424D01*
X1566678Y8558D01*
X1566317Y8713D01*
X1565973Y8888D01*
X1565649Y9081D01*
X1565344Y9293D01*
X1565058Y9523D01*
X1564792Y9772D01*
X1564545Y10040D01*
X1564318Y10326D01*
X1564110Y10631D01*
X1563923Y10953D01*
X1563758Y11289D01*
X1563615Y11641D01*
X1563494Y12007D01*
X1563395Y12389D01*
X1563318Y12785D01*
X1563263Y13196D01*
X1563230Y13622D01*
X1562808Y13763D01*
X1562417Y13913D01*
X1562057Y14073D01*
X1561729Y14243D01*
X1561432Y14422D01*
X1561166Y14612D01*
X1560932Y14811D01*
X1560729Y15019D01*
X1560554Y15240D01*
X1560402Y15475D01*
X1560273Y15726D01*
X1560168Y15990D01*
X1560086Y16270D01*
X1560027Y16564D01*
X1559992Y16872D01*
X1559980Y17196D01*
X1559993Y17572D01*
X1560029Y17958D01*
X1560089Y18352D01*
X1560173Y18755D01*
X1561347Y18755D01*
X1561261Y18240D01*
X1561240Y17991D01*
X1561233Y17747D01*
X1561241Y17529D01*
X1561264Y17320D01*
X1561302Y17121D01*
X1561356Y16932D01*
X1561425Y16752D01*
X1561509Y16582D01*
X1561608Y16422D01*
X1561723Y16272D01*
X1561856Y16130D01*
X1562007Y15994D01*
X1562178Y15866D01*
X1562367Y15745D01*
X1562804Y15524D01*
X1563317Y15330D01*
X1563416Y15899D01*
X1563557Y16435D01*
X1563741Y16940D01*
X1563968Y17412D01*
X1564238Y17853D01*
X1564551Y18261D01*
X1564907Y18638D01*
X1565306Y18982D01*
X1565741Y19290D01*
X1566204Y19557D01*
X1566697Y19783D01*
X1567219Y19968D01*
X1567770Y20111D01*
X1568350Y20214D01*
X1568959Y20276D01*
X1569597Y20296D01*
X1570075Y20285D01*
X1570537Y20250D01*
X1570983Y20193D01*
X1571413Y20113D01*
X1571826Y20011D01*
X1572223Y19885D01*
X1572604Y19736D01*
X1572969Y19565D01*
X1573316Y19372D01*
X1573641Y19158D01*
X1573945Y18925D01*
X1574227Y18670D01*
X1574489Y18396D01*
X1574729Y18101D01*
X1574948Y17785D01*
X1575146Y17450D01*
X1575321Y17096D01*
X1575473Y16727D01*
X1575602Y16342D01*
X1575708Y15941D01*
X1575789Y15525D01*
X1575848Y15093D01*
X1575883Y14646D01*
X1575895Y14183D01*
X1575888Y13826D01*
X1575869Y13480D01*
X1575836Y13143D01*
X1575790Y12817D01*
X1575732Y12500D01*
X1575660Y12194D01*
X1575575Y11897D01*
X1575478Y11610D01*
X1575367Y11333D01*
X1575243Y11066D01*
X1575106Y10809D01*
X1574956Y10562D01*
X1574793Y10324D01*
X1574617Y10097D01*
X1574226Y9672D01*
X1573789Y9292D01*
X1573311Y8963D01*
X1573057Y8818D01*
X1572793Y8685D01*
X1572519Y8564D01*
X1572235Y8457D01*
X1571940Y8362D01*
X1571636Y8280D01*
X1571321Y8210D01*
X1570997Y8153D01*
X1570662Y8109D01*
X1570317Y8077D01*
X1569962Y8058D01*
X1569597Y8052D01*
G37*
%LPC*%
G36*
X1569597Y9751D02*
X1570166Y9769D01*
X1570701Y9823D01*
X1571205Y9913D01*
X1571675Y10040D01*
X1572113Y10203D01*
X1572519Y10401D01*
X1572892Y10636D01*
X1573232Y10907D01*
X1573536Y11211D01*
X1573799Y11545D01*
X1574022Y11910D01*
X1574204Y12304D01*
X1574346Y12729D01*
X1574447Y13183D01*
X1574508Y13668D01*
X1574528Y14183D01*
X1574508Y14693D01*
X1574446Y15174D01*
X1574344Y15626D01*
X1574200Y16047D01*
X1574015Y16439D01*
X1573789Y16801D01*
X1573523Y17134D01*
X1573215Y17437D01*
X1572871Y17706D01*
X1572496Y17940D01*
X1572090Y18138D01*
X1571653Y18300D01*
X1571186Y18426D01*
X1570687Y18516D01*
X1570158Y18570D01*
X1569597Y18588D01*
X1569012Y18570D01*
X1568461Y18517D01*
X1567944Y18428D01*
X1567461Y18303D01*
X1567013Y18142D01*
X1566598Y17945D01*
X1566217Y17713D01*
X1565871Y17445D01*
X1565562Y17144D01*
X1565294Y16812D01*
X1565067Y16448D01*
X1564882Y16054D01*
X1564738Y15628D01*
X1564635Y15172D01*
X1564573Y14684D01*
X1564552Y14165D01*
X1564574Y13660D01*
X1564638Y13184D01*
X1564744Y12736D01*
X1564893Y12316D01*
X1565084Y11925D01*
X1565319Y11561D01*
X1565595Y11227D01*
X1565914Y10920D01*
X1566270Y10646D01*
X1566655Y10409D01*
X1567071Y10208D01*
X1567516Y10043D01*
X1567991Y9915D01*
X1568497Y9824D01*
X1569032Y9769D01*
X1569597Y9751D01*
G37*
%LPD*%
G36*
X1575711Y22611D02*
X1563370Y22611D01*
X1563370Y24284D01*
X1568494Y24284D01*
X1568494Y28129D01*
X1563370Y31335D01*
X1563370Y33261D01*
X1566423Y31249D01*
X1568686Y29758D01*
X1568759Y30101D01*
X1568852Y30425D01*
X1568968Y30730D01*
X1569105Y31016D01*
X1569197Y31172D01*
X1569263Y31283D01*
X1569444Y31531D01*
X1569645Y31760D01*
X1569869Y31970D01*
X1570110Y32157D01*
X1570365Y32320D01*
X1570633Y32458D01*
X1570915Y32571D01*
X1571211Y32658D01*
X1571521Y32721D01*
X1571844Y32758D01*
X1572181Y32771D01*
X1572586Y32753D01*
X1572967Y32700D01*
X1573326Y32612D01*
X1573662Y32487D01*
X1573976Y32328D01*
X1574266Y32133D01*
X1574533Y31903D01*
X1574778Y31637D01*
X1574997Y31338D01*
X1575186Y31010D01*
X1575346Y30652D01*
X1575478Y30265D01*
X1575580Y29848D01*
X1575652Y29401D01*
X1575696Y28924D01*
X1575711Y28418D01*
X1575711Y22611D01*
G37*
%LPC*%
G36*
X1574371Y24284D02*
X1574371Y28252D01*
X1574362Y28585D01*
X1574335Y28899D01*
X1574291Y29192D01*
X1574230Y29466D01*
X1574150Y29719D01*
X1574053Y29952D01*
X1573938Y30165D01*
X1573806Y30358D01*
X1573657Y30529D01*
X1573491Y30678D01*
X1573310Y30804D01*
X1573113Y30907D01*
X1572900Y30987D01*
X1572670Y31044D01*
X1572425Y31078D01*
X1572164Y31089D01*
X1571893Y31078D01*
X1571638Y31044D01*
X1571399Y30988D01*
X1571175Y30909D01*
X1570966Y30807D01*
X1570773Y30683D01*
X1570596Y30536D01*
X1570434Y30367D01*
X1570289Y30177D01*
X1570164Y29968D01*
X1570057Y29740D01*
X1569971Y29494D01*
X1569903Y29229D01*
X1569855Y28945D01*
X1569826Y28643D01*
X1569816Y28322D01*
X1569816Y24284D01*
X1574371Y24284D01*
G37*
%LPD*%
G36*
X1575711Y35549D02*
X1563370Y35549D01*
X1563370Y45271D01*
X1564736Y45271D01*
X1564736Y37221D01*
X1569037Y37221D01*
X1569037Y44386D01*
X1570386Y44386D01*
X1570386Y37221D01*
X1574344Y37221D01*
X1574344Y44911D01*
X1575711Y44911D01*
X1575711Y35549D01*
G37*
G36*
X1566541Y74010D02*
X1566139Y74077D01*
X1565764Y74172D01*
X1565413Y74295D01*
X1565088Y74447D01*
X1564788Y74627D01*
X1564513Y74836D01*
X1564264Y75072D01*
X1564040Y75337D01*
X1563842Y75628D01*
X1563670Y75943D01*
X1563525Y76281D01*
X1563406Y76643D01*
X1563314Y77029D01*
X1563248Y77438D01*
X1563208Y77872D01*
X1563195Y78328D01*
X1563210Y78817D01*
X1563253Y79277D01*
X1563327Y79709D01*
X1563429Y80111D01*
X1563561Y80484D01*
X1563722Y80828D01*
X1563912Y81143D01*
X1564132Y81429D01*
X1564378Y81683D01*
X1564649Y81904D01*
X1564943Y82091D01*
X1565262Y82243D01*
X1565605Y82362D01*
X1565971Y82447D01*
X1566362Y82498D01*
X1566777Y82515D01*
X1567066Y82503D01*
X1567343Y82467D01*
X1567607Y82406D01*
X1567859Y82322D01*
X1568098Y82214D01*
X1568324Y82081D01*
X1568538Y81925D01*
X1568739Y81744D01*
X1568924Y81542D01*
X1569089Y81320D01*
X1569235Y81080D01*
X1569361Y80820D01*
X1569467Y80541D01*
X1569554Y80243D01*
X1569620Y79926D01*
X1569667Y79590D01*
X1569702Y79590D01*
X1569776Y79895D01*
X1569864Y80183D01*
X1569967Y80451D01*
X1570085Y80701D01*
X1570217Y80932D01*
X1570365Y81144D01*
X1570528Y81337D01*
X1570705Y81512D01*
X1570897Y81667D01*
X1571103Y81801D01*
X1571323Y81915D01*
X1571556Y82008D01*
X1571803Y82080D01*
X1572064Y82132D01*
X1572339Y82163D01*
X1572628Y82173D01*
X1573003Y82157D01*
X1573356Y82109D01*
X1573688Y82029D01*
X1574000Y81916D01*
X1574290Y81771D01*
X1574558Y81594D01*
X1574806Y81385D01*
X1575032Y81144D01*
X1575234Y80874D01*
X1575409Y80578D01*
X1575558Y80256D01*
X1575679Y79908D01*
X1575773Y79534D01*
X1575841Y79135D01*
X1575881Y78709D01*
X1575895Y78258D01*
X1575881Y77843D01*
X1575842Y77447D01*
X1575775Y77071D01*
X1575682Y76713D01*
X1575563Y76375D01*
X1575417Y76057D01*
X1575244Y75757D01*
X1575045Y75477D01*
X1574822Y75221D01*
X1574579Y74993D01*
X1574314Y74794D01*
X1574029Y74622D01*
X1573723Y74479D01*
X1573396Y74365D01*
X1573049Y74278D01*
X1572680Y74221D01*
X1572558Y75806D01*
X1572794Y75841D01*
X1573016Y75892D01*
X1573225Y75960D01*
X1573420Y76046D01*
X1573602Y76148D01*
X1573770Y76266D01*
X1573924Y76402D01*
X1574064Y76555D01*
X1574189Y76722D01*
X1574298Y76901D01*
X1574390Y77094D01*
X1574465Y77298D01*
X1574523Y77515D01*
X1574565Y77744D01*
X1574590Y77986D01*
X1574598Y78241D01*
X1574589Y78519D01*
X1574563Y78779D01*
X1574518Y79022D01*
X1574455Y79247D01*
X1574374Y79454D01*
X1574276Y79644D01*
X1574159Y79816D01*
X1574025Y79971D01*
X1573875Y80107D01*
X1573712Y80225D01*
X1573536Y80325D01*
X1573347Y80407D01*
X1573145Y80471D01*
X1572930Y80517D01*
X1572702Y80544D01*
X1572461Y80553D01*
X1572219Y80542D01*
X1571989Y80508D01*
X1571773Y80453D01*
X1571571Y80375D01*
X1571383Y80274D01*
X1571208Y80151D01*
X1571046Y80006D01*
X1570898Y79839D01*
X1570766Y79652D01*
X1570651Y79446D01*
X1570554Y79222D01*
X1570474Y78980D01*
X1570412Y78719D01*
X1570368Y78441D01*
X1570342Y78144D01*
X1570333Y77829D01*
X1570333Y76971D01*
X1568967Y76971D01*
X1568967Y77864D01*
X1568958Y78219D01*
X1568931Y78552D01*
X1568887Y78864D01*
X1568825Y79155D01*
X1568746Y79424D01*
X1568649Y79671D01*
X1568534Y79897D01*
X1568402Y80102D01*
X1568254Y80284D01*
X1568092Y80441D01*
X1567916Y80574D01*
X1567726Y80683D01*
X1567523Y80768D01*
X1567306Y80829D01*
X1567075Y80865D01*
X1566830Y80877D01*
X1566549Y80866D01*
X1566287Y80835D01*
X1566043Y80782D01*
X1565816Y80707D01*
X1565607Y80612D01*
X1565416Y80495D01*
X1565242Y80357D01*
X1565087Y80198D01*
X1564949Y80021D01*
X1564830Y79827D01*
X1564729Y79617D01*
X1564647Y79391D01*
X1564582Y79150D01*
X1564537Y78892D01*
X1564509Y78618D01*
X1564500Y78328D01*
X1564508Y78040D01*
X1564534Y77767D01*
X1564577Y77511D01*
X1564637Y77270D01*
X1564714Y77046D01*
X1564808Y76838D01*
X1564919Y76645D01*
X1565047Y76469D01*
X1565193Y76309D01*
X1565355Y76165D01*
X1565535Y76037D01*
X1565732Y75926D01*
X1565945Y75830D01*
X1566176Y75750D01*
X1566424Y75687D01*
X1566689Y75639D01*
X1566541Y74010D01*
G37*
G36*
X1564710Y47412D02*
X1563370Y47412D01*
X1563370Y55146D01*
X1564710Y55146D01*
X1564710Y52142D01*
X1575711Y52142D01*
X1575711Y50688D01*
X1573705Y47771D01*
X1572216Y47771D01*
X1574204Y50557D01*
X1564710Y50557D01*
X1564710Y47412D01*
G37*
G36*
X1564710Y56068D02*
X1563370Y56068D01*
X1563370Y63802D01*
X1564710Y63802D01*
X1564710Y60798D01*
X1575711Y60798D01*
X1575711Y59344D01*
X1573705Y56428D01*
X1572216Y56428D01*
X1574204Y59213D01*
X1564710Y59213D01*
X1564710Y56068D01*
G37*
G36*
X1564710Y64725D02*
X1563370Y64725D01*
X1563370Y72459D01*
X1564710Y72459D01*
X1564710Y69454D01*
X1575711Y69454D01*
X1575711Y68000D01*
X1573705Y65084D01*
X1572216Y65084D01*
X1574204Y67869D01*
X1564710Y67869D01*
X1564710Y64725D01*
G37*
D10*
X144780Y85852D02*
X144780Y4612D01*
X780Y4612D01*
X780Y85852D01*
X144780Y85852D01*
X4050Y43942D02*
X4055Y44310D01*
X4068Y44678D01*
X4091Y45045D01*
X4122Y45412D01*
X4163Y45778D01*
X4212Y46143D01*
X4271Y46506D01*
X4338Y46868D01*
X4414Y47229D01*
X4500Y47587D01*
X4593Y47943D01*
X4696Y48296D01*
X4807Y48647D01*
X4927Y48995D01*
X5055Y49340D01*
X5192Y49682D01*
X5337Y50021D01*
X5490Y50355D01*
X5652Y50686D01*
X5821Y51013D01*
X5999Y51335D01*
X6184Y51654D01*
X6377Y51967D01*
X6578Y52276D01*
X6786Y52579D01*
X7002Y52877D01*
X7225Y53170D01*
X7455Y53458D01*
X7692Y53740D01*
X7936Y54015D01*
X8186Y54285D01*
X8443Y54549D01*
X8707Y54806D01*
X8977Y55056D01*
X9252Y55300D01*
X9534Y55537D01*
X9822Y55767D01*
X10115Y55990D01*
X10413Y56206D01*
X10716Y56414D01*
X11025Y56615D01*
X11338Y56808D01*
X11657Y56993D01*
X11979Y57171D01*
X12306Y57340D01*
X12637Y57502D01*
X12971Y57655D01*
X13310Y57800D01*
X13652Y57937D01*
X13997Y58065D01*
X14345Y58185D01*
X14696Y58296D01*
X15049Y58399D01*
X15405Y58492D01*
X15763Y58578D01*
X16124Y58654D01*
X16486Y58721D01*
X16849Y58780D01*
X17214Y58829D01*
X17580Y58870D01*
X17947Y58901D01*
X18314Y58924D01*
X18682Y58937D01*
X19050Y58942D01*
X19418Y58937D01*
X19786Y58924D01*
X20153Y58901D01*
X20520Y58870D01*
X20886Y58829D01*
X21251Y58780D01*
X21614Y58721D01*
X21976Y58654D01*
X22337Y58578D01*
X22695Y58492D01*
X23051Y58399D01*
X23404Y58296D01*
X23755Y58185D01*
X24103Y58065D01*
X24448Y57937D01*
X24790Y57800D01*
X25129Y57655D01*
X25463Y57502D01*
X25794Y57340D01*
X26121Y57171D01*
X26443Y56993D01*
X26762Y56808D01*
X27075Y56615D01*
X27384Y56414D01*
X27687Y56206D01*
X27985Y55990D01*
X28278Y55767D01*
X28566Y55537D01*
X28848Y55300D01*
X29123Y55056D01*
X29393Y54806D01*
X29657Y54549D01*
X29914Y54285D01*
X30164Y54015D01*
X30408Y53740D01*
X30645Y53458D01*
X30875Y53170D01*
X31098Y52877D01*
X31314Y52579D01*
X31522Y52276D01*
X31723Y51967D01*
X31916Y51654D01*
X32101Y51335D01*
X32279Y51013D01*
X32448Y50686D01*
X32610Y50355D01*
X32763Y50021D01*
X32908Y49682D01*
X33045Y49340D01*
X33173Y48995D01*
X33293Y48647D01*
X33404Y48296D01*
X33507Y47943D01*
X33600Y47587D01*
X33686Y47229D01*
X33762Y46868D01*
X33829Y46506D01*
X33888Y46143D01*
X33937Y45778D01*
X33978Y45412D01*
X34009Y45045D01*
X34032Y44678D01*
X34045Y44310D01*
X34050Y43942D01*
X34045Y43574D01*
X34032Y43206D01*
X34009Y42839D01*
X33978Y42472D01*
X33937Y42106D01*
X33888Y41741D01*
X33829Y41378D01*
X33762Y41016D01*
X33686Y40655D01*
X33600Y40297D01*
X33507Y39941D01*
X33404Y39588D01*
X33293Y39237D01*
X33173Y38889D01*
X33045Y38544D01*
X32908Y38202D01*
X32763Y37863D01*
X32610Y37529D01*
X32448Y37198D01*
X32279Y36871D01*
X32101Y36549D01*
X31916Y36230D01*
X31723Y35917D01*
X31522Y35608D01*
X31314Y35305D01*
X31098Y35007D01*
X30875Y34714D01*
X30645Y34426D01*
X30408Y34144D01*
X30164Y33869D01*
X29914Y33599D01*
X29657Y33335D01*
X29393Y33078D01*
X29123Y32828D01*
X28848Y32584D01*
X28566Y32347D01*
X28278Y32117D01*
X27985Y31894D01*
X27687Y31678D01*
X27384Y31470D01*
X27075Y31269D01*
X26762Y31076D01*
X26443Y30891D01*
X26121Y30713D01*
X25794Y30544D01*
X25463Y30382D01*
X25129Y30229D01*
X24790Y30084D01*
X24448Y29947D01*
X24103Y29819D01*
X23755Y29699D01*
X23404Y29588D01*
X23051Y29485D01*
X22695Y29392D01*
X22337Y29306D01*
X21976Y29230D01*
X21614Y29163D01*
X21251Y29104D01*
X20886Y29055D01*
X20520Y29014D01*
X20153Y28983D01*
X19786Y28960D01*
X19418Y28947D01*
X19050Y28942D01*
X18682Y28947D01*
X18314Y28960D01*
X17947Y28983D01*
X17580Y29014D01*
X17214Y29055D01*
X16849Y29104D01*
X16486Y29163D01*
X16124Y29230D01*
X15763Y29306D01*
X15405Y29392D01*
X15049Y29485D01*
X14696Y29588D01*
X14345Y29699D01*
X13997Y29819D01*
X13652Y29947D01*
X13310Y30084D01*
X12971Y30229D01*
X12637Y30382D01*
X12306Y30544D01*
X11979Y30713D01*
X11657Y30891D01*
X11338Y31076D01*
X11025Y31269D01*
X10716Y31470D01*
X10413Y31678D01*
X10115Y31894D01*
X9822Y32117D01*
X9534Y32347D01*
X9252Y32584D01*
X8977Y32828D01*
X8707Y33078D01*
X8443Y33335D01*
X8186Y33599D01*
X7936Y33869D01*
X7692Y34144D01*
X7455Y34426D01*
X7225Y34714D01*
X7002Y35007D01*
X6786Y35305D01*
X6578Y35608D01*
X6377Y35917D01*
X6184Y36230D01*
X5999Y36549D01*
X5821Y36871D01*
X5652Y37198D01*
X5490Y37529D01*
X5337Y37863D01*
X5192Y38202D01*
X5055Y38544D01*
X4927Y38889D01*
X4807Y39237D01*
X4696Y39588D01*
X4593Y39941D01*
X4500Y40297D01*
X4414Y40655D01*
X4338Y41016D01*
X4271Y41378D01*
X4212Y41741D01*
X4163Y42106D01*
X4122Y42472D01*
X4091Y42839D01*
X4068Y43206D01*
X4055Y43574D01*
X4050Y43942D01*
X144780Y1336463D02*
X144780Y1417703D01*
X144780Y1336463D02*
X780Y1336463D01*
X780Y1417703D01*
X144780Y1417703D01*
X4050Y1375793D02*
X4055Y1376161D01*
X4068Y1376529D01*
X4091Y1376896D01*
X4122Y1377263D01*
X4163Y1377629D01*
X4212Y1377994D01*
X4271Y1378357D01*
X4338Y1378719D01*
X4414Y1379080D01*
X4500Y1379438D01*
X4593Y1379794D01*
X4696Y1380147D01*
X4807Y1380498D01*
X4927Y1380846D01*
X5055Y1381191D01*
X5192Y1381533D01*
X5337Y1381872D01*
X5490Y1382206D01*
X5652Y1382537D01*
X5821Y1382864D01*
X5999Y1383186D01*
X6184Y1383505D01*
X6377Y1383818D01*
X6578Y1384127D01*
X6786Y1384430D01*
X7002Y1384728D01*
X7225Y1385021D01*
X7455Y1385309D01*
X7692Y1385591D01*
X7936Y1385866D01*
X8186Y1386136D01*
X8443Y1386400D01*
X8707Y1386657D01*
X8977Y1386907D01*
X9252Y1387151D01*
X9534Y1387388D01*
X9822Y1387618D01*
X10115Y1387841D01*
X10413Y1388057D01*
X10716Y1388265D01*
X11025Y1388466D01*
X11338Y1388659D01*
X11657Y1388844D01*
X11979Y1389022D01*
X12306Y1389191D01*
X12637Y1389353D01*
X12971Y1389506D01*
X13310Y1389651D01*
X13652Y1389788D01*
X13997Y1389916D01*
X14345Y1390036D01*
X14696Y1390147D01*
X15049Y1390250D01*
X15405Y1390343D01*
X15763Y1390429D01*
X16124Y1390505D01*
X16486Y1390572D01*
X16849Y1390631D01*
X17214Y1390680D01*
X17580Y1390721D01*
X17947Y1390752D01*
X18314Y1390775D01*
X18682Y1390788D01*
X19050Y1390793D01*
X19418Y1390788D01*
X19786Y1390775D01*
X20153Y1390752D01*
X20520Y1390721D01*
X20886Y1390680D01*
X21251Y1390631D01*
X21614Y1390572D01*
X21976Y1390505D01*
X22337Y1390429D01*
X22695Y1390343D01*
X23051Y1390250D01*
X23404Y1390147D01*
X23755Y1390036D01*
X24103Y1389916D01*
X24448Y1389788D01*
X24790Y1389651D01*
X25129Y1389506D01*
X25463Y1389353D01*
X25794Y1389191D01*
X26121Y1389022D01*
X26443Y1388844D01*
X26762Y1388659D01*
X27075Y1388466D01*
X27384Y1388265D01*
X27687Y1388057D01*
X27985Y1387841D01*
X28278Y1387618D01*
X28566Y1387388D01*
X28848Y1387151D01*
X29123Y1386907D01*
X29393Y1386657D01*
X29657Y1386400D01*
X29914Y1386136D01*
X30164Y1385866D01*
X30408Y1385591D01*
X30645Y1385309D01*
X30875Y1385021D01*
X31098Y1384728D01*
X31314Y1384430D01*
X31522Y1384127D01*
X31723Y1383818D01*
X31916Y1383505D01*
X32101Y1383186D01*
X32279Y1382864D01*
X32448Y1382537D01*
X32610Y1382206D01*
X32763Y1381872D01*
X32908Y1381533D01*
X33045Y1381191D01*
X33173Y1380846D01*
X33293Y1380498D01*
X33404Y1380147D01*
X33507Y1379794D01*
X33600Y1379438D01*
X33686Y1379080D01*
X33762Y1378719D01*
X33829Y1378357D01*
X33888Y1377994D01*
X33937Y1377629D01*
X33978Y1377263D01*
X34009Y1376896D01*
X34032Y1376529D01*
X34045Y1376161D01*
X34050Y1375793D01*
X34045Y1375425D01*
X34032Y1375057D01*
X34009Y1374690D01*
X33978Y1374323D01*
X33937Y1373957D01*
X33888Y1373592D01*
X33829Y1373229D01*
X33762Y1372867D01*
X33686Y1372506D01*
X33600Y1372148D01*
X33507Y1371792D01*
X33404Y1371439D01*
X33293Y1371088D01*
X33173Y1370740D01*
X33045Y1370395D01*
X32908Y1370053D01*
X32763Y1369714D01*
X32610Y1369380D01*
X32448Y1369049D01*
X32279Y1368722D01*
X32101Y1368400D01*
X31916Y1368081D01*
X31723Y1367768D01*
X31522Y1367459D01*
X31314Y1367156D01*
X31098Y1366858D01*
X30875Y1366565D01*
X30645Y1366277D01*
X30408Y1365995D01*
X30164Y1365720D01*
X29914Y1365450D01*
X29657Y1365186D01*
X29393Y1364929D01*
X29123Y1364679D01*
X28848Y1364435D01*
X28566Y1364198D01*
X28278Y1363968D01*
X27985Y1363745D01*
X27687Y1363529D01*
X27384Y1363321D01*
X27075Y1363120D01*
X26762Y1362927D01*
X26443Y1362742D01*
X26121Y1362564D01*
X25794Y1362395D01*
X25463Y1362233D01*
X25129Y1362080D01*
X24790Y1361935D01*
X24448Y1361798D01*
X24103Y1361670D01*
X23755Y1361550D01*
X23404Y1361439D01*
X23051Y1361336D01*
X22695Y1361243D01*
X22337Y1361157D01*
X21976Y1361081D01*
X21614Y1361014D01*
X21251Y1360955D01*
X20886Y1360906D01*
X20520Y1360865D01*
X20153Y1360834D01*
X19786Y1360811D01*
X19418Y1360798D01*
X19050Y1360793D01*
X18682Y1360798D01*
X18314Y1360811D01*
X17947Y1360834D01*
X17580Y1360865D01*
X17214Y1360906D01*
X16849Y1360955D01*
X16486Y1361014D01*
X16124Y1361081D01*
X15763Y1361157D01*
X15405Y1361243D01*
X15049Y1361336D01*
X14696Y1361439D01*
X14345Y1361550D01*
X13997Y1361670D01*
X13652Y1361798D01*
X13310Y1361935D01*
X12971Y1362080D01*
X12637Y1362233D01*
X12306Y1362395D01*
X11979Y1362564D01*
X11657Y1362742D01*
X11338Y1362927D01*
X11025Y1363120D01*
X10716Y1363321D01*
X10413Y1363529D01*
X10115Y1363745D01*
X9822Y1363968D01*
X9534Y1364198D01*
X9252Y1364435D01*
X8977Y1364679D01*
X8707Y1364929D01*
X8443Y1365186D01*
X8186Y1365450D01*
X7936Y1365720D01*
X7692Y1365995D01*
X7455Y1366277D01*
X7225Y1366565D01*
X7002Y1366858D01*
X6786Y1367156D01*
X6578Y1367459D01*
X6377Y1367768D01*
X6184Y1368081D01*
X5999Y1368400D01*
X5821Y1368722D01*
X5652Y1369049D01*
X5490Y1369380D01*
X5337Y1369714D01*
X5192Y1370053D01*
X5055Y1370395D01*
X4927Y1370740D01*
X4807Y1371088D01*
X4696Y1371439D01*
X4593Y1371792D01*
X4500Y1372148D01*
X4414Y1372506D01*
X4338Y1372867D01*
X4271Y1373229D01*
X4212Y1373592D01*
X4163Y1373957D01*
X4122Y1374323D01*
X4091Y1374690D01*
X4068Y1375057D01*
X4055Y1375425D01*
X4050Y1375793D01*
X1480820Y1336040D02*
X1480820Y1417280D01*
X1624820Y1417280D01*
X1624820Y1336040D01*
X1480820Y1336040D01*
X1591550Y1377950D02*
X1591555Y1378318D01*
X1591568Y1378686D01*
X1591591Y1379053D01*
X1591622Y1379420D01*
X1591663Y1379786D01*
X1591712Y1380151D01*
X1591771Y1380514D01*
X1591838Y1380876D01*
X1591914Y1381237D01*
X1592000Y1381595D01*
X1592093Y1381951D01*
X1592196Y1382304D01*
X1592307Y1382655D01*
X1592427Y1383003D01*
X1592555Y1383348D01*
X1592692Y1383690D01*
X1592837Y1384029D01*
X1592990Y1384363D01*
X1593152Y1384694D01*
X1593321Y1385021D01*
X1593499Y1385343D01*
X1593684Y1385662D01*
X1593877Y1385975D01*
X1594078Y1386284D01*
X1594286Y1386587D01*
X1594502Y1386885D01*
X1594725Y1387178D01*
X1594955Y1387466D01*
X1595192Y1387748D01*
X1595436Y1388023D01*
X1595686Y1388293D01*
X1595943Y1388557D01*
X1596207Y1388814D01*
X1596477Y1389064D01*
X1596752Y1389308D01*
X1597034Y1389545D01*
X1597322Y1389775D01*
X1597615Y1389998D01*
X1597913Y1390214D01*
X1598216Y1390422D01*
X1598525Y1390623D01*
X1598838Y1390816D01*
X1599157Y1391001D01*
X1599479Y1391179D01*
X1599806Y1391348D01*
X1600137Y1391510D01*
X1600471Y1391663D01*
X1600810Y1391808D01*
X1601152Y1391945D01*
X1601497Y1392073D01*
X1601845Y1392193D01*
X1602196Y1392304D01*
X1602549Y1392407D01*
X1602905Y1392500D01*
X1603263Y1392586D01*
X1603624Y1392662D01*
X1603986Y1392729D01*
X1604349Y1392788D01*
X1604714Y1392837D01*
X1605080Y1392878D01*
X1605447Y1392909D01*
X1605814Y1392932D01*
X1606182Y1392945D01*
X1606550Y1392950D01*
X1606918Y1392945D01*
X1607286Y1392932D01*
X1607653Y1392909D01*
X1608020Y1392878D01*
X1608386Y1392837D01*
X1608751Y1392788D01*
X1609114Y1392729D01*
X1609476Y1392662D01*
X1609837Y1392586D01*
X1610195Y1392500D01*
X1610551Y1392407D01*
X1610904Y1392304D01*
X1611255Y1392193D01*
X1611603Y1392073D01*
X1611948Y1391945D01*
X1612290Y1391808D01*
X1612629Y1391663D01*
X1612963Y1391510D01*
X1613294Y1391348D01*
X1613621Y1391179D01*
X1613943Y1391001D01*
X1614262Y1390816D01*
X1614575Y1390623D01*
X1614884Y1390422D01*
X1615187Y1390214D01*
X1615485Y1389998D01*
X1615778Y1389775D01*
X1616066Y1389545D01*
X1616348Y1389308D01*
X1616623Y1389064D01*
X1616893Y1388814D01*
X1617157Y1388557D01*
X1617414Y1388293D01*
X1617664Y1388023D01*
X1617908Y1387748D01*
X1618145Y1387466D01*
X1618375Y1387178D01*
X1618598Y1386885D01*
X1618814Y1386587D01*
X1619022Y1386284D01*
X1619223Y1385975D01*
X1619416Y1385662D01*
X1619601Y1385343D01*
X1619779Y1385021D01*
X1619948Y1384694D01*
X1620110Y1384363D01*
X1620263Y1384029D01*
X1620408Y1383690D01*
X1620545Y1383348D01*
X1620673Y1383003D01*
X1620793Y1382655D01*
X1620904Y1382304D01*
X1621007Y1381951D01*
X1621100Y1381595D01*
X1621186Y1381237D01*
X1621262Y1380876D01*
X1621329Y1380514D01*
X1621388Y1380151D01*
X1621437Y1379786D01*
X1621478Y1379420D01*
X1621509Y1379053D01*
X1621532Y1378686D01*
X1621545Y1378318D01*
X1621550Y1377950D01*
X1621545Y1377582D01*
X1621532Y1377214D01*
X1621509Y1376847D01*
X1621478Y1376480D01*
X1621437Y1376114D01*
X1621388Y1375749D01*
X1621329Y1375386D01*
X1621262Y1375024D01*
X1621186Y1374663D01*
X1621100Y1374305D01*
X1621007Y1373949D01*
X1620904Y1373596D01*
X1620793Y1373245D01*
X1620673Y1372897D01*
X1620545Y1372552D01*
X1620408Y1372210D01*
X1620263Y1371871D01*
X1620110Y1371537D01*
X1619948Y1371206D01*
X1619779Y1370879D01*
X1619601Y1370557D01*
X1619416Y1370238D01*
X1619223Y1369925D01*
X1619022Y1369616D01*
X1618814Y1369313D01*
X1618598Y1369015D01*
X1618375Y1368722D01*
X1618145Y1368434D01*
X1617908Y1368152D01*
X1617664Y1367877D01*
X1617414Y1367607D01*
X1617157Y1367343D01*
X1616893Y1367086D01*
X1616623Y1366836D01*
X1616348Y1366592D01*
X1616066Y1366355D01*
X1615778Y1366125D01*
X1615485Y1365902D01*
X1615187Y1365686D01*
X1614884Y1365478D01*
X1614575Y1365277D01*
X1614262Y1365084D01*
X1613943Y1364899D01*
X1613621Y1364721D01*
X1613294Y1364552D01*
X1612963Y1364390D01*
X1612629Y1364237D01*
X1612290Y1364092D01*
X1611948Y1363955D01*
X1611603Y1363827D01*
X1611255Y1363707D01*
X1610904Y1363596D01*
X1610551Y1363493D01*
X1610195Y1363400D01*
X1609837Y1363314D01*
X1609476Y1363238D01*
X1609114Y1363171D01*
X1608751Y1363112D01*
X1608386Y1363063D01*
X1608020Y1363022D01*
X1607653Y1362991D01*
X1607286Y1362968D01*
X1606918Y1362955D01*
X1606550Y1362950D01*
X1606182Y1362955D01*
X1605814Y1362968D01*
X1605447Y1362991D01*
X1605080Y1363022D01*
X1604714Y1363063D01*
X1604349Y1363112D01*
X1603986Y1363171D01*
X1603624Y1363238D01*
X1603263Y1363314D01*
X1602905Y1363400D01*
X1602549Y1363493D01*
X1602196Y1363596D01*
X1601845Y1363707D01*
X1601497Y1363827D01*
X1601152Y1363955D01*
X1600810Y1364092D01*
X1600471Y1364237D01*
X1600137Y1364390D01*
X1599806Y1364552D01*
X1599479Y1364721D01*
X1599157Y1364899D01*
X1598838Y1365084D01*
X1598525Y1365277D01*
X1598216Y1365478D01*
X1597913Y1365686D01*
X1597615Y1365902D01*
X1597322Y1366125D01*
X1597034Y1366355D01*
X1596752Y1366592D01*
X1596477Y1366836D01*
X1596207Y1367086D01*
X1595943Y1367343D01*
X1595686Y1367607D01*
X1595436Y1367877D01*
X1595192Y1368152D01*
X1594955Y1368434D01*
X1594725Y1368722D01*
X1594502Y1369015D01*
X1594286Y1369313D01*
X1594078Y1369616D01*
X1593877Y1369925D01*
X1593684Y1370238D01*
X1593499Y1370557D01*
X1593321Y1370879D01*
X1593152Y1371206D01*
X1592990Y1371537D01*
X1592837Y1371871D01*
X1592692Y1372210D01*
X1592555Y1372552D01*
X1592427Y1372897D01*
X1592307Y1373245D01*
X1592196Y1373596D01*
X1592093Y1373949D01*
X1592000Y1374305D01*
X1591914Y1374663D01*
X1591838Y1375024D01*
X1591771Y1375386D01*
X1591712Y1375749D01*
X1591663Y1376114D01*
X1591622Y1376480D01*
X1591591Y1376847D01*
X1591568Y1377214D01*
X1591555Y1377582D01*
X1591550Y1377950D01*
X1480820Y85812D02*
X1480820Y4572D01*
X1480820Y85812D02*
X1624820Y85812D01*
X1624820Y4572D01*
X1480820Y4572D01*
X1591550Y46482D02*
X1591555Y46850D01*
X1591568Y47218D01*
X1591591Y47585D01*
X1591622Y47952D01*
X1591663Y48318D01*
X1591712Y48683D01*
X1591771Y49046D01*
X1591838Y49408D01*
X1591914Y49769D01*
X1592000Y50127D01*
X1592093Y50483D01*
X1592196Y50836D01*
X1592307Y51187D01*
X1592427Y51535D01*
X1592555Y51880D01*
X1592692Y52222D01*
X1592837Y52561D01*
X1592990Y52895D01*
X1593152Y53226D01*
X1593321Y53553D01*
X1593499Y53875D01*
X1593684Y54194D01*
X1593877Y54507D01*
X1594078Y54816D01*
X1594286Y55119D01*
X1594502Y55417D01*
X1594725Y55710D01*
X1594955Y55998D01*
X1595192Y56280D01*
X1595436Y56555D01*
X1595686Y56825D01*
X1595943Y57089D01*
X1596207Y57346D01*
X1596477Y57596D01*
X1596752Y57840D01*
X1597034Y58077D01*
X1597322Y58307D01*
X1597615Y58530D01*
X1597913Y58746D01*
X1598216Y58954D01*
X1598525Y59155D01*
X1598838Y59348D01*
X1599157Y59533D01*
X1599479Y59711D01*
X1599806Y59880D01*
X1600137Y60042D01*
X1600471Y60195D01*
X1600810Y60340D01*
X1601152Y60477D01*
X1601497Y60605D01*
X1601845Y60725D01*
X1602196Y60836D01*
X1602549Y60939D01*
X1602905Y61032D01*
X1603263Y61118D01*
X1603624Y61194D01*
X1603986Y61261D01*
X1604349Y61320D01*
X1604714Y61369D01*
X1605080Y61410D01*
X1605447Y61441D01*
X1605814Y61464D01*
X1606182Y61477D01*
X1606550Y61482D01*
X1606918Y61477D01*
X1607286Y61464D01*
X1607653Y61441D01*
X1608020Y61410D01*
X1608386Y61369D01*
X1608751Y61320D01*
X1609114Y61261D01*
X1609476Y61194D01*
X1609837Y61118D01*
X1610195Y61032D01*
X1610551Y60939D01*
X1610904Y60836D01*
X1611255Y60725D01*
X1611603Y60605D01*
X1611948Y60477D01*
X1612290Y60340D01*
X1612629Y60195D01*
X1612963Y60042D01*
X1613294Y59880D01*
X1613621Y59711D01*
X1613943Y59533D01*
X1614262Y59348D01*
X1614575Y59155D01*
X1614884Y58954D01*
X1615187Y58746D01*
X1615485Y58530D01*
X1615778Y58307D01*
X1616066Y58077D01*
X1616348Y57840D01*
X1616623Y57596D01*
X1616893Y57346D01*
X1617157Y57089D01*
X1617414Y56825D01*
X1617664Y56555D01*
X1617908Y56280D01*
X1618145Y55998D01*
X1618375Y55710D01*
X1618598Y55417D01*
X1618814Y55119D01*
X1619022Y54816D01*
X1619223Y54507D01*
X1619416Y54194D01*
X1619601Y53875D01*
X1619779Y53553D01*
X1619948Y53226D01*
X1620110Y52895D01*
X1620263Y52561D01*
X1620408Y52222D01*
X1620545Y51880D01*
X1620673Y51535D01*
X1620793Y51187D01*
X1620904Y50836D01*
X1621007Y50483D01*
X1621100Y50127D01*
X1621186Y49769D01*
X1621262Y49408D01*
X1621329Y49046D01*
X1621388Y48683D01*
X1621437Y48318D01*
X1621478Y47952D01*
X1621509Y47585D01*
X1621532Y47218D01*
X1621545Y46850D01*
X1621550Y46482D01*
X1621545Y46114D01*
X1621532Y45746D01*
X1621509Y45379D01*
X1621478Y45012D01*
X1621437Y44646D01*
X1621388Y44281D01*
X1621329Y43918D01*
X1621262Y43556D01*
X1621186Y43195D01*
X1621100Y42837D01*
X1621007Y42481D01*
X1620904Y42128D01*
X1620793Y41777D01*
X1620673Y41429D01*
X1620545Y41084D01*
X1620408Y40742D01*
X1620263Y40403D01*
X1620110Y40069D01*
X1619948Y39738D01*
X1619779Y39411D01*
X1619601Y39089D01*
X1619416Y38770D01*
X1619223Y38457D01*
X1619022Y38148D01*
X1618814Y37845D01*
X1618598Y37547D01*
X1618375Y37254D01*
X1618145Y36966D01*
X1617908Y36684D01*
X1617664Y36409D01*
X1617414Y36139D01*
X1617157Y35875D01*
X1616893Y35618D01*
X1616623Y35368D01*
X1616348Y35124D01*
X1616066Y34887D01*
X1615778Y34657D01*
X1615485Y34434D01*
X1615187Y34218D01*
X1614884Y34010D01*
X1614575Y33809D01*
X1614262Y33616D01*
X1613943Y33431D01*
X1613621Y33253D01*
X1613294Y33084D01*
X1612963Y32922D01*
X1612629Y32769D01*
X1612290Y32624D01*
X1611948Y32487D01*
X1611603Y32359D01*
X1611255Y32239D01*
X1610904Y32128D01*
X1610551Y32025D01*
X1610195Y31932D01*
X1609837Y31846D01*
X1609476Y31770D01*
X1609114Y31703D01*
X1608751Y31644D01*
X1608386Y31595D01*
X1608020Y31554D01*
X1607653Y31523D01*
X1607286Y31500D01*
X1606918Y31487D01*
X1606550Y31482D01*
X1606182Y31487D01*
X1605814Y31500D01*
X1605447Y31523D01*
X1605080Y31554D01*
X1604714Y31595D01*
X1604349Y31644D01*
X1603986Y31703D01*
X1603624Y31770D01*
X1603263Y31846D01*
X1602905Y31932D01*
X1602549Y32025D01*
X1602196Y32128D01*
X1601845Y32239D01*
X1601497Y32359D01*
X1601152Y32487D01*
X1600810Y32624D01*
X1600471Y32769D01*
X1600137Y32922D01*
X1599806Y33084D01*
X1599479Y33253D01*
X1599157Y33431D01*
X1598838Y33616D01*
X1598525Y33809D01*
X1598216Y34010D01*
X1597913Y34218D01*
X1597615Y34434D01*
X1597322Y34657D01*
X1597034Y34887D01*
X1596752Y35124D01*
X1596477Y35368D01*
X1596207Y35618D01*
X1595943Y35875D01*
X1595686Y36139D01*
X1595436Y36409D01*
X1595192Y36684D01*
X1594955Y36966D01*
X1594725Y37254D01*
X1594502Y37547D01*
X1594286Y37845D01*
X1594078Y38148D01*
X1593877Y38457D01*
X1593684Y38770D01*
X1593499Y39089D01*
X1593321Y39411D01*
X1593152Y39738D01*
X1592990Y40069D01*
X1592837Y40403D01*
X1592692Y40742D01*
X1592555Y41084D01*
X1592427Y41429D01*
X1592307Y41777D01*
X1592196Y42128D01*
X1592093Y42481D01*
X1592000Y42837D01*
X1591914Y43195D01*
X1591838Y43556D01*
X1591771Y43918D01*
X1591712Y44281D01*
X1591663Y44646D01*
X1591622Y45012D01*
X1591591Y45379D01*
X1591568Y45746D01*
X1591555Y46114D01*
X1591550Y46482D01*
M02*
