G04 EAGLE Gerber RS-274X export*
G75*
%MOMM*%
%FSLAX34Y34*%
%LPD*%
%INSoldermask Bottom*%
%IPPOS*%
%AMOC8*
5,1,8,0,0,1.08239X$1,22.5*%
G01*
G04 Define Apertures*
%ADD10C,1.981200*%
%ADD11C,6.045200*%
%ADD12C,3.703200*%
%ADD13C,2.133600*%
%ADD14C,2.527200*%
D10*
X911315Y342900D02*
X893535Y342900D01*
X893535Y368300D02*
X911315Y368300D01*
X911315Y393700D02*
X893535Y393700D01*
X893535Y419100D02*
X911315Y419100D01*
X944335Y342900D02*
X962115Y342900D01*
X962115Y368300D02*
X944335Y368300D01*
X944335Y393700D02*
X962115Y393700D01*
X962115Y419100D02*
X944335Y419100D01*
X911315Y444500D02*
X893535Y444500D01*
X944335Y444500D02*
X962115Y444500D01*
X911315Y469900D02*
X893535Y469900D01*
X944335Y469900D02*
X962115Y469900D01*
X911315Y495300D02*
X893535Y495300D01*
X944335Y495300D02*
X962115Y495300D01*
X911315Y520700D02*
X893535Y520700D01*
X944335Y520700D02*
X962115Y520700D01*
X911315Y546100D02*
X893535Y546100D01*
X944335Y546100D02*
X962115Y546100D01*
D11*
X330200Y279400D03*
X330200Y1117600D03*
X1041400Y1117600D03*
X1041400Y279400D03*
D12*
X1211580Y1217930D03*
X1211580Y1358900D03*
X1371600Y1217930D03*
X1371600Y1358900D03*
X1371220Y204470D03*
X1371220Y63500D03*
X1211200Y204470D03*
X1211200Y63500D03*
D13*
X635000Y1219200D02*
X635000Y1238504D01*
X660400Y1238504D02*
X660400Y1219200D01*
X685800Y1219200D02*
X685800Y1238504D01*
X711200Y1238504D02*
X711200Y1219200D01*
X736600Y1219200D02*
X736600Y1238504D01*
X762000Y1238504D02*
X762000Y1219200D01*
X787400Y1219200D02*
X787400Y1238504D01*
X812800Y1238504D02*
X812800Y1219200D01*
X838200Y1219200D02*
X838200Y1238504D01*
X863600Y1238504D02*
X863600Y1219200D01*
X132080Y70612D02*
X112776Y70612D01*
X112776Y45212D02*
X132080Y45212D01*
X132080Y19812D02*
X112776Y19812D01*
X112776Y1402463D02*
X132080Y1402463D01*
X132080Y1377063D02*
X112776Y1377063D01*
X112776Y1351663D02*
X132080Y1351663D01*
X1493520Y1351280D02*
X1512824Y1351280D01*
X1512824Y1376680D02*
X1493520Y1376680D01*
X1493520Y1402080D02*
X1512824Y1402080D01*
X1512824Y19812D02*
X1493520Y19812D01*
X1493520Y45212D02*
X1512824Y45212D01*
X1512824Y70612D02*
X1493520Y70612D01*
X157871Y1041795D02*
X144221Y1055445D01*
X162182Y1073405D02*
X175832Y1059755D01*
X193792Y1077716D02*
X180142Y1091366D01*
X198103Y1109326D02*
X211753Y1095676D01*
X229713Y1113637D02*
X216063Y1127287D01*
X234024Y1145247D02*
X247674Y1131597D01*
X95367Y857201D02*
X77533Y864589D01*
X87253Y888055D02*
X105087Y880668D01*
X114808Y904134D02*
X96973Y911522D01*
X106693Y934988D02*
X124528Y927601D01*
X134248Y951068D02*
X116413Y958455D01*
X126134Y981921D02*
X143968Y974534D01*
X95377Y679450D02*
X76073Y679450D01*
X76073Y704850D02*
X95377Y704850D01*
X95377Y730250D02*
X76073Y730250D01*
X76073Y755650D02*
X95377Y755650D01*
X95377Y781050D02*
X76073Y781050D01*
X76073Y806450D02*
X95377Y806450D01*
X144580Y507547D02*
X126746Y500159D01*
X117026Y523626D02*
X134860Y531013D01*
X125140Y554480D02*
X107306Y547092D01*
X97585Y570559D02*
X115420Y577946D01*
X105700Y601413D02*
X87865Y594025D01*
X78145Y617492D02*
X95980Y624879D01*
X237074Y349340D02*
X223424Y335690D01*
X205463Y353650D02*
X219113Y367300D01*
X201153Y385261D02*
X187503Y371611D01*
X169542Y389571D02*
X183192Y403221D01*
X165232Y421182D02*
X151582Y407532D01*
X133621Y425492D02*
X147271Y439142D01*
D14*
X76200Y304800D03*
X193739Y304800D03*
X132080Y1190625D03*
X132080Y1250950D03*
X1511300Y342900D03*
X1574800Y342900D03*
X584200Y755650D03*
X711200Y755650D03*
X581025Y584200D03*
X711200Y584200D03*
X584200Y457200D03*
X711200Y457200D03*
X635000Y914400D03*
X711200Y914400D03*
X635000Y1044575D03*
X711200Y1044575D03*
X736600Y482600D03*
X558800Y482600D03*
X736600Y635000D03*
X558800Y635000D03*
X762000Y806450D03*
X584200Y806450D03*
X635000Y965200D03*
X838200Y965200D03*
X864966Y1174750D03*
X584200Y1174750D03*
X812800Y279400D03*
X812800Y533400D03*
M02*
