M48
;GenerationSoftware,Autodesk,EAGLE,9.7.0*%
;CreationDate,2025-11-03T10:40:56Z*%
FMAT,2
ICI,OFF
METRIC,TZ,000.000
T4C0.800
T3C1.000
T2C3.200
T1C3.500
%
G90
M71
T1
X121158Y121793
X121120Y6350
X121120Y20447
X137122Y6350
X137122Y20447
X137160Y135890
X137160Y121793
X121158Y135890
T2
X104140Y27940
X104140Y111760
X33020Y111760
X33020Y27940
T3
X14727Y43914
X17583Y105976
X16523Y42118
X18319Y40322
X20115Y38526
X21911Y36730
X23707Y34934
X9598Y62488
X10570Y60141
X11542Y57795
X12514Y55448
X13486Y53101
X14458Y50755
X9538Y80645
X9538Y78105
X9538Y75565
X9538Y73025
X9538Y70485
X9538Y67945
X14397Y97453
X13425Y95107
X12453Y92760
X11481Y90413
X10509Y88067
X90242Y34290
X90242Y36830
X90242Y39370
X90242Y41910
X95322Y34290
X95322Y36830
X95322Y39370
X95322Y41910
X90242Y44450
X95322Y44450
X90242Y46990
X95322Y46990
X90242Y49530
X95322Y49530
X90242Y52070
X95322Y52070
X90242Y54610
X95322Y54610
X9537Y85720
X24767Y113160
X22971Y111364
X21175Y109568
X63500Y121920
X66040Y121920
X68580Y121920
X71120Y121920
X73660Y121920
X76200Y121920
X78740Y121920
X81280Y121920
X83820Y121920
X86360Y121920
X13208Y7061
X13208Y4521
X13208Y1981
X13208Y140246
X13208Y137706
X13208Y135166
X149352Y135128
X149352Y137668
X149352Y140208
X149352Y1981
X149352Y4521
X149352Y7061
X15787Y104179
X19379Y107772
T4
X71120Y91440
X7620Y30480
X13208Y119062
X13208Y125095
X151130Y34290
X157480Y34290
X58420Y75565
X71120Y75565
X58102Y58420
X71120Y58420
X58420Y45720
X71120Y45720
X63500Y91440
X81280Y53340
X81280Y27940
X58420Y117475
X86497Y117475
X83820Y96520
X63500Y96520
X58420Y80645
X76200Y80645
X55880Y63500
X73660Y63500
X55880Y48260
X73660Y48260
X71120Y104457
X63500Y104457
X19374Y30480
M30